<svg viewBox="0 0 200 200" fill="none" xmlns="http://www.w3.org/2000/svg"><path d="M176.241 60.085c.118 1.703.118 3.406.118 5.125 0 52.38-39.831 112.79-112.664 112.79v-.031A112.008 112.008 0 013 160.197a80.44 80.44 0 009.425.573 79.45 79.45 0 0049.177-17.002c-16.944-.322-31.802-11.381-36.993-27.528a39.421 39.421 0 0017.877-.683c-18.473-3.736-31.763-19.985-31.763-38.855V76.2a39.313 39.313 0 0017.971 4.96C11.296 69.52 5.932 46.349 16.44 28.233a112.408 112.408 0 0036.403 29.397 112.287 112.287 0 0045.204 12.016 39.708 39.708 0 01.672-20.469 39.675 39.675 0 0110.783-17.404c15.948-15.009 41.031-14.24 56.022 1.719a79.398 79.398 0 0025.145-9.624 39.78 39.78 0 01-17.406 21.924A78.678 78.678 0 00196 39.55a80.49 80.49 0 01-19.759 20.534z" fill="currentColor"/></svg>